<?xml version="1.0" encoding="utf-8"?>
<!-- Generator: Adobe Illustrator 16.0.0, SVG Export Plug-In . SVG Version: 6.00 Build 0)  -->
<!DOCTYPE svg PUBLIC "-//W3C//DTD SVG 1.1//EN" "http://www.w3.org/Graphics/SVG/1.1/DTD/svg11.dtd">
<svg version="1.1" id="Layer_1" xmlns="http://www.w3.org/2000/svg" xmlns:xlink="http://www.w3.org/1999/xlink" x="0px" y="0px"
	 width="32px" height="32px" viewBox="0 0 32 32" enable-background="new 0 0 32 32" xml:space="preserve">
<path id="Icon_metro-cancel" fill="#CC0000" d="M16,0.625C7.509,0.625,0.625,7.509,0.625,16c0,8.49,6.884,15.375,15.375,15.375
	c8.49,0,15.375-6.885,15.375-15.375C31.375,7.509,24.49,0.625,16,0.625z M16,28.492C9.101,28.492,3.508,22.898,3.508,16
	C3.508,9.101,9.101,3.508,16,3.508c6.898,0,12.492,5.593,12.492,12.492C28.486,22.896,22.896,28.484,16,28.484V28.492z
	 M20.805,8.313L16,13.109l-4.794-4.797l-2.893,2.883L13.117,16l-4.805,4.798l2.893,2.89L16,18.883l4.805,4.805l2.883-2.89L18.895,16
	l4.805-4.805L20.805,8.313z"/>
</svg>
