<svg xmlns="http://www.w3.org/2000/svg" width="12.4" height="17.456" viewBox="0 0 12.4 17.456">
  <g id="iconfinder_location_1814106" transform="translate(0)">
    <g id="Icon-Location">
      <path id="Fill-55" d="M-210.6-350.144l-.332-.406c-.221-.3-5.868-6.9-5.868-10.85a6.213,6.213,0,0,1,6.2-6.2,6.237,6.237,0,0,1,6.2,6.2c0,3.949-5.646,10.592-5.868,10.85l-.332.406Zm0-16.607a5.316,5.316,0,0,0-5.314,5.314c0,3.1,4.1,8.377,5.314,9.891,1.218-1.513,5.314-6.754,5.314-9.891a5.316,5.316,0,0,0-5.314-5.314Z" transform="translate(216.8 367.6)"/>
      <path id="Fill-56" d="M-204.038-352.476a2.378,2.378,0,0,1-2.362-2.362,2.378,2.378,0,0,1,2.362-2.362,2.378,2.378,0,0,1,2.362,2.362,2.378,2.378,0,0,1-2.362,2.362Zm0-3.838a1.481,1.481,0,0,0-1.476,1.476,1.481,1.481,0,0,0,1.476,1.476,1.481,1.481,0,0,0,1.476-1.476,1.481,1.481,0,0,0-1.476-1.476Z" transform="translate(210.238 361.038)"/>
    </g>
  </g>
</svg>
